<?xml version="1.0" encoding="UTF-8" standalone="no" ?>
<!DOCTYPE svg PUBLIC "-//W3C//DTD SVG 1.1//EN" "http://www.w3.org/Graphics/SVG/1.1/DTD/svg11.dtd">
<svg xmlns="http://www.w3.org/2000/svg" xmlns:xlink="http://www.w3.org/1999/xlink" version="1.1" width="247.11111999999997" height="244.12205999999998" viewBox="206.22221777777784 162.19892444268177 247.11111999999997 244.12205999999998" xml:space="preserve">
<desc>Created with Fabric.js 5.3.0</desc>
<defs>
</defs>
<g transform="matrix(1 0 0 1 329.7777777778 284.2599544427)" id="ZwIHBjyIoy-H_Pt9BRupW"  >
<path style="stroke: rgb(139,181,248); stroke-width: 0; stroke-dasharray: none; stroke-linecap: butt; stroke-dashoffset: 0; stroke-linejoin: miter; stroke-miterlimit: 4; fill: rgb(255,255,255); fill-rule: nonzero; opacity: 1;"  transform=" translate(-123.55556, -122.061032224)" d="M 123.55555 244.12206 C 119.02038 244.12206 114.6126 243.83867 110.395 243.30433 L 136.71611 243.30433 C 132.49850999999998 243.83866999999998 128.09072999999998 244.12206 123.55555999999999 244.12206 z M 142.51178 177.88603 L 145.91773999999998 189.64006 C 145.91773999999998 189.64006 145.91773999999998 189.64006 145.91772999999998 189.64006 L 159.68401999999998 237.14781 C 153.18379999999996 240.0658 145.34830999999997 242.21068 136.71611 243.30432 L 110.39499999999998 243.30432 C 101.76279999999998 242.21068 93.92731999999998 240.0658 87.42709999999998 237.14782 L 101.19339999999998 189.64005 L 101.19340999999999 189.64005 L 105.32678999999999 175.37569 C 80.44608 181.68597 60.57808999999999 200.61142999999998 52.93941999999999 224.93547 C 20.943899999999992 202.59900000000002 -7.105427357601002e-15 165.50827 -7.105427357601002e-15 123.55556000000001 C -7.105427357601002e-15 55.352890000000016 55.352889999999995 1.4210854715202004e-14 123.55555999999999 1.4210854715202004e-14 L 123.55555999999999 0.000010000000014210856 C 191.75822999999997 0.000010000000014210856 247.11111999999997 55.35290000000002 247.11111999999997 123.55557000000002 C 247.11111999999997 165.50827 226.16722 202.59900000000002 194.17171999999997 224.93547 C 186.53304999999997 200.61143 166.66506999999996 181.68597 141.78435999999996 175.3757 z M 29.1358 85.80108 C 29.1358 100.52108 41.08247 112.46775 55.80247 112.46775 C 70.52247 112.46775 82.46914 100.52108 82.46914 85.80108 C 82.46914 71.08108 70.52247 59.13441 55.80247 59.13441 C 41.08247 59.13441 29.1358 71.08108 29.1358 85.80108 z" stroke-linecap="round" />
</g>
</svg>